<?xml version="1.0" encoding="UTF-8" standalone="no"?>
<!-- Uploaded to: SVG Repo, www.svgrepo.com, Generator: SVG Repo Mixer Tools -->

<svg
   width="800px"
   height="800px"
   viewBox="0 0 36 36"
   aria-hidden="true"
   role="img"
   class="iconify iconify--twemoji"
   preserveAspectRatio="xMidYMid meet"
   version="1.1"
   id="svg5"
   sodipodi:docname="mouse-svgrepo-com.svg"
   xml:space="preserve"
   inkscape:version="1.4 (86a8ad7, 2024-10-11)"
   inkscape:export-filename="logo.png"
   inkscape:export-xdpi="96"
   inkscape:export-ydpi="96"
   xmlns:inkscape="http://www.inkscape.org/namespaces/inkscape"
   xmlns:sodipodi="http://sodipodi.sourceforge.net/DTD/sodipodi-0.dtd"
   xmlns="http://www.w3.org/2000/svg"
   xmlns:svg="http://www.w3.org/2000/svg"><defs
     id="defs5" /><sodipodi:namedview
     id="namedview5"
     pagecolor="#ffffff"
     bordercolor="#000000"
     borderopacity="0.25"
     inkscape:showpageshadow="2"
     inkscape:pageopacity="0.0"
     inkscape:pagecheckerboard="0"
     inkscape:deskcolor="#d1d1d1"
     inkscape:zoom="1.6678881"
     inkscape:cx="383.419"
     inkscape:cy="394.51087"
     inkscape:window-width="2523"
     inkscape:window-height="2080"
     inkscape:window-x="1308"
     inkscape:window-y="0"
     inkscape:window-maximized="0"
     inkscape:current-layer="svg5" /><path
     fill="#EA596E"
     d="M30 36H17a1 1 0 1 1 0-2h13c2.542 0 4-1.367 4-3.75c0-1.537-1.643-3.25-4-3.25h-7a1 1 0 1 1 0-2h7c3.589 0 6 2.715 6 5.25c0 3.493-2.355 5.75-6 5.75z"
     id="path1" /><path
     fill="#CCD6DD"
     d="M12 26.717c0-2.85 3-7.035 0-7.035c-4 0-10.137 6.566-10.137 8.442C1.863 30 8.304 30 11.153 30c2.849 0 .847-.434.847-3.283z"
     id="path2" /><path
     fill="#CCD6DD"
     d="M33 23.902c0-7.973-6.554-9.752-11.381-8.787c-9.38 1.876-11.132 6.442-11.132 10.194c0 4.922 9.149 4.69 14.071 4.69S33 28.825 33 23.902z"
     id="path3" /><path
     fill="#CCD6DD"
     d="M25 22.496L7.894 24.371L11.425 30H25zm-8.082-5.353c0-2.683-1.997-4.858-4.458-4.858C9.997 12.286 8 14.46 8 17.143S9.997 22 12.46 22c2.461 0 4.458-2.174 4.458-4.857z"
     id="path4" /><path
     fill="#F4ABBA"
     d="M14.37 17.683c0 1.788-1.141 3.239-2.548 3.239c-1.408 0-2.548-1.451-2.548-3.239s1.14-3.238 2.548-3.238c1.407-.001 2.548 1.449 2.548 3.238z"
     id="path5" /><g
     style="fill:#000000"
     id="g7"
     transform="matrix(0.0291185,0,0,0.0291185,16.910506,0.17970338)"><g
       id="g2"
       transform="translate(-25.017296,22.237596)">
	<g
   id="g1">
		<path
   d="M 380.541,82.973 H 364.396 C 344.786,33.399 296.622,0 242.162,0 171.395,0 113.51,56.202 110.802,126.316 55.763,136.11 13.838,184.315 13.838,242.122 c 0,64.857 52.765,117.622 117.622,117.622 h 16.143 c 19.61,49.575 67.774,82.974 122.235,82.974 70.678,0 128.506,-56.065 131.35,-126.057 55.279,-9.841 96.974,-58.617 96.974,-116.062 0,-64.859 -52.765,-117.626 -117.621,-117.626 z"
   id="path1-4"
   style="fill:none;stroke:#000000;stroke-width:15.4541;stroke-dasharray:none;stroke-opacity:1" />
	</g>
</g><g
       id="g6">
	<g
   id="g5">
		<path
   d="m 59.429803,398.5778 c -34.336,0 -62.2700002,27.934 -62.2700002,62.27 0,34.336 27.9340002,62.271 62.2700002,62.271 34.336,0 62.269997,-27.934 62.269997,-62.27 0,-34.336 -27.933997,-62.271 -62.269997,-62.271 z"
   id="path4-8"
   style="fill:none;stroke:#000000;stroke-width:15.4541;stroke-dasharray:none;stroke-opacity:1" />
	</g>
</g><g
       style="fill:#000000;stroke-width:4.44706;stroke-dasharray:none"
       id="g8"
       transform="matrix(1.0692954,0,0,1.0692954,90.118496,104.08547)"><path
         d="m 255.413,147.195 c -5.044,-2.812 -15.403,-9.266 -23.638,-16.198 8.415,-5.436 18.043,-10.489 20.078,-11.392 2.528,-1.122 3.668,-4.081 2.547,-6.609 -1.123,-2.529 -4.081,-3.67 -6.609,-2.547 -3.014,1.338 -17.239,8.867 -26.895,15.837 H 203.68 c -5.669,0 -11.276,-1.181 -16.463,-3.468 -14.435,-6.365 -23.085,-21.346 -21.379,-37.03 0.626,-5.76 2.483,-11.318 5.444,-16.298 l 5.704,-9.594 c 14.034,-1.87 27.56,-7.069 39.22,-15.105 2.187,-1.507 3.064,-4.438 1.751,-6.748 -1.476,-2.596 -4.82,-3.314 -7.217,-1.651 -6,4.165 -15.134,9.22 -26.952,12.064 l 8.453,-14.217 c 1.337,-2.248 0.891,-5.234 -1.218,-6.782 -2.419,-1.775 -5.779,-1.048 -7.278,1.471 l -21.544,36.233 c -2.826,4.753 -6.582,8.886 -11.044,12.152 -12.729,9.318 -30.028,9.318 -42.757,0 -4.61,-3.375 -8.446,-7.697 -11.248,-12.677 L 86.467,45.651 C 88.342,34.01 85.874,13.511 83.586,5.675 82.83,3.088 80.2,1.388 77.577,2.008 c -2.835,0.67 -4.479,3.575 -3.651,6.322 1.982,6.574 3.743,22.643 3.016,32.538 -7.472,-2.106 -14.741,-5.206 -19.164,-8.224 -2.13,-1.453 -5.075,-1.237 -6.769,0.707 -1.997,2.293 -1.517,5.741 0.913,7.423 6,4.154 19.198,9.099 26.341,10.724 l 10.362,18.411 c 2.755,4.894 4.488,10.297 5.096,15.88 v 0 c 1.706,15.683 -6.944,30.665 -21.379,37.03 -5.187,2.287 -10.794,3.468 -16.463,3.468 H 43.376 C 34.993,114.301 32.277,110.191 32.25,110.149 c -1.523,-2.309 -4.628,-2.949 -6.938,-1.427 -2.31,1.522 -2.949,4.627 -1.428,6.936 0.095,0.144 1.931,2.924 7.281,10.628 H 7.224 c -2.616,0 -4.952,1.912 -5.2,4.517 -0.285,2.987 2.056,5.5 4.985,5.5 h 22.769 c -5.411,5.665 -12.411,12.135 -18.617,16.614 -1.999,1.443 -2.609,4.147 -1.37,6.279 l 0.093,0.16 c 1.508,2.597 4.89,3.312 7.291,1.566 9.494,-6.904 20.299,-17.645 26.014,-24.619 h 12.703 c 5.665,0 11.269,1.18 16.452,3.466 14.434,6.364 23.084,21.345 21.378,37.028 v 0 c -0.609,5.598 -2.342,11.016 -5.096,15.929 l -9.924,17.7 c -16.216,2.254 -31.256,11.813 -31.922,12.241 -2.327,1.496 -2.958,4.567 -1.506,6.921 1.883,3.054 5.574,2.321 6.921,1.506 0.781,-0.472 9.107,-5.791 19.967,-9.002 l -1.946,3.581 c -1.32,2.38 -0.5,5.379 1.847,6.757 v 0 c 2.425,1.424 5.547,0.575 6.917,-1.881 l 7.215,-13.006 c 0,0 0,0 0,0 l 10.998,-19.617 c 2.787,-4.971 6.61,-9.287 11.208,-12.653 12.729,-9.319 30.028,-9.319 42.757,0 5.314,3.89 9.633,8.98 12.607,14.855 l 15.312,30.251 c 1.252,2.467 4.267,3.451 6.733,2.199 2.466,-1.252 3.451,-4.266 2.199,-6.733 l -8.87,-17.583 c 7.174,1.609 16.973,4.753 24.166,10.444 2.274,1.799 5.543,0.929 7.04,-0.775 1.825,-2.079 1.384,-5.311 -0.775,-7.04 -12.063,-9.671 -29.382,-12.922 -36.132,-13.862 l -3.826,-7.537 c -2.014,-3.969 -3.293,-8.27 -3.775,-12.694 -1.706,-15.683 6.943,-30.664 21.378,-37.028 v 0 c 5.184,-2.286 10.787,-3.466 16.453,-3.466 h 18.958 c 9.23,8.339 22.01,16.333 27.908,19.641 2.37,1.329 5.57,0.216 6.814,-1.936 1.385,-2.395 0.481,-5.467 -1.935,-6.814 z m -142.328,-1.988 c -9.22,0 -16.695,-6.229 -16.695,-13.912 0,-7.683 7.474,-13.912 16.695,-13.912 9.22,0 16.695,6.229 16.695,13.912 0,7.683 -7.475,13.912 -16.695,13.912 z"
         id="path1-2"
         style="fill:#5de718;fill-opacity:1;fill-rule:nonzero;stroke:none;stroke-width:4.44706;stroke-dasharray:none;stroke-opacity:1;paint-order:markers fill stroke" /></g><g
       id="g9"
       transform="matrix(2.6530038,0,0,2.6530038,-494.93821,607.82024)"
       style="stroke-width:7.28142"><path
         d="m 18.064,50.947 -4.449,3.732 0.135,-9.222 A 0.628,0.628 0 0 0 13.604,45.049 L 11.635,42.702 A 0.62,0.62 0 0 0 10.761,42.625 L 2.222,49.79 a 0.62,0.62 0 0 0 -0.077,0.874 l 1.93,2.299 a 0.62,0.62 0 0 0 0.874,0.075 l 3.948,-3.313 -0.058,9.451 a 0.618,0.618 0 0 0 0.144,0.402 l 1.846,2.199 a 0.62,0.62 0 0 0 0.875,0.076 l 9.103,-7.639 a 0.62,0.62 0 0 0 0.077,-0.875 l -1.945,-2.317 a 0.624,0.624 0 0 0 -0.875,-0.075"
         fill="#000000"
         id="path1-45"
         style="stroke-width:7.28142" /><path
         d="m 36.026,33.529 -6.464,3.733 2.229,-11.648 a 0.813,0.813 0 0 0 -0.094,-0.548 l -1.971,-3.411 a 0.797,0.797 0 0 0 -1.09,-0.293 l -12.41,7.164 a 0.799,0.799 0 0 0 -0.292,1.092 l 1.928,3.34 a 0.798,0.798 0 0 0 1.091,0.292 l 5.739,-3.313 -2.184,11.951 a 0.794,0.794 0 0 0 0.093,0.543 l 1.846,3.197 a 0.797,0.797 0 0 0 1.09,0.291 L 38.77,38.28 a 0.796,0.796 0 0 0 0.292,-1.09 l -1.945,-3.369 a 0.799,0.799 0 0 0 -1.091,-0.292"
         fill="#000000"
         id="path2-5"
         style="stroke-width:7.28142" /><path
         d="M 59.331,16.792 51.537,19.63 56.223,7.316 A 0.894,0.894 0 0 0 56.226,6.698 L 54.729,2.584 A 0.885,0.885 0 0 0 53.594,2.055 L 38.631,7.499 A 0.886,0.886 0 0 0 38.1,8.636 l 1.467,4.027 a 0.883,0.883 0 0 0 1.136,0.529 l 6.919,-2.518 -4.694,12.657 a 0.888,0.888 0 0 0 -0.003,0.612 l 1.402,3.854 a 0.887,0.887 0 0 0 1.137,0.529 l 15.953,-5.807 a 0.887,0.887 0 0 0 0.53,-1.137 l -1.479,-4.061 a 0.888,0.888 0 0 0 -1.137,-0.529"
         fill="#000000"
         id="path3-1"
         style="stroke-width:7.28142" /></g></g><g
     style="fill:none"
     id="g10"
     transform="matrix(1.5,0,0,1.5,-0.765,-0.225)"><path
       id="Vector"
       d="M 6.5428448,16.315368 5.1577682,17.036392"
       stroke="#000000"
       stroke-width="0.449611"
       stroke-linecap="round"
       stroke-linejoin="round" /></g></svg>
